<?xml version="1.0" encoding="utf-8"?>
<!-- Generator: Adobe Illustrator 24.1.1, SVG Export Plug-In . SVG Version: 6.00 Build 0)  -->
<svg version="1.1" id="Layer_1" xmlns="http://www.w3.org/2000/svg" xmlns:xlink="http://www.w3.org/1999/xlink" x="0px" y="0px"
	 viewBox="0 0 512 512" style="enable-background:new 0 0 512 512;" xml:space="preserve">
<g>
	<path d="M326.7,137.4L438.1,26L425,13c-17-17-46.7-17-63.7,0l-47.6,47.6c-8.5,8.5-13.2,19.9-13.2,31.9s4.7,23.3,13.2,31.8
		L326.7,137.4z M124.5,313.4c-17-17-46.7-17-63.7,0L13.2,361C4.7,369.5,0,380.9,0,392.9c0,12,4.7,23.3,13.2,31.9l13.1,13
		l111.2-111.2L124.5,313.4z M478.8,66.7l-10.6-10.6L356.7,167.5l19.5,19.5c2.9,2.9,4.4,6.6,4.4,10.6c0,4-1.6,7.8-4.4,10.6L208.4,376
		c-5.7,5.6-15.6,5.7-21.2,0l-19.5-19.5L56.5,468l10.6,10.6c7.8,7.8,37.4,33.2,91.8,33.2c48.5,0,127.8-21.4,229.8-123.3
		C592.2,185,483.6,71.6,478.8,66.7z"/>
</g>
</svg>
